:FULLY-SPECIFIED
:FORCE-ALL-JOINTS-BE-3DOF
:DEGREES
388
root 9.54618 16.9214 18.3793 6.87098 1.6252 -5.85714
lfemur -42.9005 3.952 -14.6308
ltibia 48.5304 -0 0
lfoot -12.5867 12.2661 0.108203
ltoes -6.08985 0 0
rfemur 4.47232 6.51089 32.3713
rtibia 13.1969 -0 0
rfoot -14.0787 5.22205 0.218146
rtoes -16.5256 0 0
lowerback -7.01669 1.93672 2.29246
upperback -0.701337 2.29241 3.21629
thorax 3.15834 1.15221 2.3345
lowerneck -19.7928 -6.46969 -12.903
upperneck 21.5378 -8.42569 12.9787
head 11.4253 -3.37873 5.60981
lclavicle -5.34234e-16 -2.74323e-14 0
lhumerus -52.4169 -13.2337 96.9467
lradius 27.4442 -0 0
lwrist 10.6045 0 0
lhand -11.1984 -21.2244 0.029132
lfingers 7.12502 -0 0
lthumb 14.8267 8.18343 0.0179032
rclavicle -5.34234e-16 -2.74323e-14 0
rhumerus -30.8152 16.9852 -85.2444
rradius 42.4045 -0 0
rwrist -20.5329 0 0
rhand -30.3303 -23.7376 0.00146444
rfingers 7.12502 -0 0
rthumb -3.63639 -53.6854 0.00135274
389
root 9.55892 16.9134 18.5201 6.92373 1.43484 -6.03532
lfemur -43.1405 3.83664 -14.4095
ltibia 47.3422 -0 0
lfoot -12.3114 12.2081 0.0997684
ltoes -6.56407 0 0
rfemur 5.62041 6.50192 32.5309
rtibia 12.0732 -0 0
rfoot -13.5883 5.4177 0.219104
rtoes -16.4524 0 0
lowerback -7.13414 2.05152 2.41984
upperback -0.693571 2.42844 3.25256
thorax 3.23269 1.22117 2.31818
lowerneck -19.7555 -6.47334 -12.9321
upperneck 21.5231 -8.43152 13.0047
head 11.416 -3.38209 5.62346
lclavicle -5.34234e-16 -2.74323e-14 0
lhumerus -52.7226 -12.96 96.9176
lradius 27.4138 -0 0
lwrist 10.4409 0 0
lhand -10.925 -21.1902 0.0284312
lfingers 7.12502 -0 0
lthumb 15.0899 8.19681 0.0169582
rclavicle -5.34234e-16 -2.74323e-14 0
rhumerus -30.6831 16.8503 -85.3114
rradius 42.2071 -0 0
rwrist -20.3458 0 0
rhand -30.2716 -23.7053 0.00118652
rfingers 7.12502 -0 0
rthumb -3.57965 -53.654 0.00108036
390
root 9.57166 16.9054 18.6609 6.97678 1.24593 -6.21001
lfemur -43.3546 3.72074 -14.1912
ltibia 46.1285 -0 0
lfoot -12.0302 12.143 0.0909038
ltoes -7.04203 0 0
rfemur 6.75319 6.48914 32.6818
rtibia 10.9643 -0 0
rfoot -13.0918 5.60989 0.218044
rtoes -16.3804 0 0
lowerback -7.25199 2.16436 2.54414
upperback -0.686114 2.56172 3.2883
thorax 3.30722 1.28875 2.30268
lowerneck -19.718 -6.47596 -12.9611
upperneck 21.5086 -8.43589 13.0306
head 11.4065 -3.38483 5.63728
lclavicle -5.34234e-16 -2.74323e-14 0
lhumerus -53.0157 -12.6922 96.8885
lradius 27.3974 -0 0
lwrist 10.2723 0 0
lhand -10.649 -21.1575 0.02751
lfingers 7.12502 -0 0
lthumb 15.3557 8.20852 0.0158988
rclavicle -5.34234e-16 -2.74323e-14 0
rhumerus -30.5597 16.71 -85.3796
rradius 42.0031 -0 0
rwrist -20.1543 0 0
rhand -30.2119 -23.675 0.000869416
rfingers 7.12502 -0 0
rthumb -3.52202 -53.6246 0.000770911
391
root 9.58439 16.8975 18.8017 7.02985 1.05893 -6.38058
lfemur -43.5437 3.60452 -13.9773
ltibia 44.8949 -0 0
lfoot -11.7448 12.0715 0.0817684
ltoes -7.52139 0 0
rfemur 7.86704 6.47269 32.8235
rtibia 9.87529 -0 0
rfoot -12.5912 5.79759 0.214992
rtoes -16.3097 0 0
lowerback -7.36972 2.27491 2.66498
upperback -0.679002 2.69189 3.32333
thorax 3.38159 1.35478 2.28801
lowerneck -19.6805 -6.47751 -12.9899
upperneck 21.4946 -8.43875 13.0559
head 11.3969 -3.38692 5.65119
lclavicle -5.34234e-16 -2.74323e-14 0
lhumerus -53.295 -12.4306 96.8591
lradius 27.3765 -0 0
lwrist 10.0991 0 0
lhand -10.3716 -21.1264 0.0263859
lfingers 7.12502 -0 0
lthumb 15.6228 8.21856 0.0147448
rclavicle -5.34234e-16 -2.74323e-14 0
rhumerus -30.4454 16.5652 -85.4489
rradius 41.7934 -0 0
rwrist -19.9591 0 0
rhand -30.1516 -23.647 0.000518174
rfingers 7.12502 -0 0
rthumb -3.46381 -53.5975 0.000429327
392
root 9.59713 16.8895 18.9425 7.08269 0.874285 -6.54637
lfemur -43.7085 3.48819 -13.7688
ltibia 43.647 -0 0
lfoot -11.4567 11.994 0.0725141
ltoes -7.99979 0 0
rfemur 8.95836 6.45275 32.9552
rtibia 8.81116 -0 0
rfoot -12.0887 5.97978 0.210003
rtoes -16.2408 0 0
lowerback -7.4868 2.38283 2.78196
upperback -0.672272 2.81859 3.35751
thorax 3.45544 1.41907 2.27418
lowerneck -19.6432 -6.47797 -13.0184
upperneck 21.4812 -8.44003 13.0807
head 11.3874 -3.38834 5.66509
lclavicle -5.34234e-16 -2.74323e-14 0
lhumerus -53.5595 -12.1755 96.8292
lradius 27.3565 -0 0
lwrist 9.92148 0 0
lhand -10.0941 -21.0968 0.0250782
lfingers 7.12502 -0 0
lthumb 15.8901 8.22697 0.0135163
rclavicle -5.34234e-16 -2.74323e-14 0
rhumerus -30.3403 16.4164 -85.5192
rradius 41.5791 -0 0
rwrist -19.761 0 0
rhand -30.091 -23.6217 0.000138915
rfingers 7.12502 -0 0
rthumb -3.40531 -53.5731 6.15558e-05
393
root 9.60987 16.8815 19.0833 7.13503 0.692427 -6.70674
lfemur -43.8497 3.37196 -13.567
ltibia 42.3906 -0 0
lfoot -11.1676 11.9111 0.0632839
ltoes -8.47487 0 0
rfemur 10.0235 6.42954 33.0763
rtibia 7.77693 -0 0
rfoot -11.5862 6.15542 0.203166
rtoes -16.1738 0 0
lowerback -7.60272 2.48778 2.89469
upperback -0.665964 2.94145 3.39065
thorax 3.5284 1.48143 2.26116
lowerneck -19.6064 -6.47731 -13.0464
upperneck 21.4686 -8.4397 13.1046
head 11.3779 -3.38906 5.6789
lclavicle -5.34234e-16 -2.74323e-14 0
lhumerus -53.8081 -11.9273 96.7984
lradius 27.3371 -0 0
lwrist 9.73981 0 0
lhand -9.81751 -21.069 0.0236085
lfingers 7.12502 -0 0
lthumb 16.1565 8.23376 0.0122334
rclavicle -5.34234e-16 -2.74323e-14 0
rhumerus -30.2448 16.2645 -85.5902
rradius 41.361 -0 0
rwrist -19.5607 0 0
rhand -30.0304 -23.5993 -0.000261237
rfingers 7.12502 -0 0
rthumb -3.3468 -53.5516 -0.000325499
394
root 9.62261 16.8736 19.2241 7.18658 0.513797 -6.86102
lfemur -43.9681 3.25606 -13.3729
ltibia 41.1311 -0 0
lfoot -10.879 11.8235 0.0542112
ltoes -8.94429 0 0
rfemur 11.0589 6.40329 33.1863
rtibia 6.77763 -0 0
rfoot -11.0858 6.3235 0.194601
rtoes -16.1092 0 0
lowerback -7.71694 2.58944 3.00281
upperback -0.660118 3.06013 3.42259
thorax 3.60012 1.54168 2.24898
lowerneck -19.5703 -6.47549 -13.0738
upperneck 21.457 -8.43768 13.1275
head 11.3686 -3.38907 5.69254
lclavicle -5.34234e-16 -2.74323e-14 0
lhumerus -54.0396 -11.6862 96.7665
lradius 27.3176 -0 0
lwrist 9.55434 0 0
lhand -9.54321 -21.043 0.0220001
lfingers 7.12502 -0 0
lthumb 16.4206 8.23895 0.0109164
rclavicle -5.34234e-16 -2.74323e-14 0
rhumerus -30.1591 16.1102 -85.6619
rradius 41.1401 -0 0
rwrist -19.3588 0 0
rhand -29.9702 -23.5802 -0.000674217
rfingers 7.12502 -0 0
rthumb -3.28859 -53.5334 -0.000724045
395
root 9.63535 16.8656 19.3649 7.23708 0.338833 -7.00856
lfemur -44.0643 3.14072 -13.1878
ltibia 39.8743 -0 0
lfoot -10.5924 11.7315 0.0454189
ltoes -9.4057 0 0
rfemur 12.0609 6.37424 33.2843
rtibia 5.81827 -0 0
rfoot -10.5896 6.483 0.184454
rtoes -16.047 0 0
lowerback -7.82894 2.68745 3.10592
upperback -0.654772 3.17424 3.45317
thorax 3.67025 1.59962 2.23761
lowerneck -19.535 -6.47248 -13.1004
upperneck 21.4465 -8.43394 13.1492
head 11.3595 -3.38833 5.70593
lclavicle -5.34234e-16 -2.74323e-14 0
lhumerus -54.2532 -11.4526 96.7332
lradius 27.2976 -0 0
lwrist 9.36534 0 0
lhand -9.27236 -21.0188 0.020278
lfingers 7.12502 -0 0
lthumb 16.6814 8.24258 0.00958542
rclavicle -5.34234e-16 -2.74323e-14 0
rhumerus -30.0835 15.9541 -85.734
rradius 40.9174 -0 0
rwrist -19.1559 0 0
rhand -29.9105 -23.5647 -0.00109111
rfingers 7.12502 -0 0
rthumb -3.23096 -53.5188 -0.00112549
396
root 9.64809 16.8576 19.5057 7.28624 0.167967 -7.14872
lfemur -44.139 3.0262 -13.0128
ltibia 38.6257 -0 0
lfoot -10.3095 11.6359 0.0370191
ltoes -9.85673 0 0
rfemur 13.026 6.34267 33.37
rtibia 4.90389 -0 0
rfoot -10.0997 6.63289 0.172903
rtoes -15.9877 0 0
lowerback -7.93822 2.78147 3.20365
upperback -0.64997 3.28344 3.4822
thorax 3.73843 1.65508 2.22705
lowerneck -19.5008 -6.46827 -13.126
upperneck 21.4373 -8.42841 13.1695
head 11.3508 -3.38683 5.71897
lclavicle -5.34234e-16 -2.74323e-14 0
lhumerus -54.4475 -11.2267 96.6983
lradius 27.2767 -0 0
lwrist 9.17309 0 0
lhand -9.00619 -20.9966 0.0184684
lfingers 7.12502 -0 0
lthumb 16.9378 8.24465 0.00826026
rclavicle -5.34234e-16 -2.74323e-14 0
rhumerus -30.0183 15.797 -85.8063
rradius 40.6938 -0 0
rwrist -18.9529 0 0
rhand -29.8517 -23.5531 -0.00150226
rfingers 7.12502 -0 0
rthumb -3.17421 -53.5081 -0.00152053
397
root 9.66083 16.8497 19.6465 7.33375 0.0016336 -7.28082
lfemur -44.1931 2.91273 -12.8491
ltibia 37.3912 -0 0
lfoot -10.0318 11.5371 0.0291123
ltoes -10.295 0 0
rfemur 13.9504 6.30885 33.4426
rtibia 4.03949 -0 0
rfoot -9.61795 6.77215 0.160147
rtoes -15.9315 0 0
lowerback -8.04425 2.87116 3.29563
upperback -0.645752 3.38736 3.50953
thorax 3.80429 1.70787 2.2173
lowerneck -19.468 -6.46281 -13.1505
upperneck 21.4297 -8.42104 13.1882
head 11.3425 -3.38455 5.73159
lclavicle -5.34234e-16 -2.74323e-14 0
lhumerus -54.6217 -11.0089 96.6614
lradius 27.2542 -0 0
lwrist 8.97787 0 0
lhand -8.7459 -20.9764 0.016599
lfingers 7.12502 -0 0
lthumb 17.1884 8.2452 0.00696029
rclavicle -5.34234e-16 -2.74323e-14 0
rhumerus -29.9638 15.6396 -85.8788
rradius 40.4703 -0 0
rwrist -18.7504 0 0
rhand -29.7942 -23.5458 -0.00189736
rfingers 7.12502 -0 0
rthumb -3.11862 -53.5017 -0.00189927
398
root 9.67357 16.8417 19.7873 7.37933 -0.159739 -7.4042
lfemur -44.227 2.80061 -12.6979
ltibia 36.1762 -0 0
lfoot -9.76093 11.4357 0.0217872
ltoes -10.7183 0 0
rfemur 14.8307 6.27305 33.5016
rtibia 3.23012 -0 0
rfoot -9.14655 6.89978 0.14641
rtoes -15.8787 0 0
lowerback -8.14651 2.95615 3.38148
upperback -0.642162 3.48564 3.53498
thorax 3.86748 1.75781 2.20835
lowerneck -19.4367 -6.45609 -13.1738
upperneck 21.4236 -8.41178 13.2052
head 11.3346 -3.38145 5.7437
lclavicle -5.34234e-16 -2.74323e-14 0
lhumerus -54.7746 -10.7996 96.6224
lradius 27.2298 -0 0
lwrist 8.77996 0 0
lhand -8.49271 -20.9582 0.0146981
lfingers 7.12502 -0 0
lthumb 17.4323 8.24425 0.00570426
rclavicle -5.34234e-16 -2.74323e-14 0
rhumerus -29.9203 15.4826 -85.9513
rradius 40.2479 -0 0
rwrist -18.549 0 0
rhand -29.7381 -23.5431 -0.00226565
rfingers 7.12502 -0 0
rthumb -3.06451 -53.4998 -0.00225138
399
root 9.68631 16.8337 19.9281 7.42267 -0.31572 -7.5182
lfemur -44.2416 2.69011 -12.5602
ltibia 34.9864 -0 0
lfoot -9.4984 11.3323 0.0151212
ltoes -11.1241 0 0
rfemur 15.6633 6.23555 33.5464
rtibia 2.48078 -0 0
rfoot -8.68751 7.01477 0.131937
rtoes -15.8295 0 0
lowerback -8.2445 3.0361 3.46084
upperback -0.639241 3.57792 3.55839
thorax 3.92765 1.8047 2.2002
lowerneck -19.4071 -6.44807 -13.1956
upperneck 21.4195 -8.40057 13.2201
head 11.3274 -3.37752 5.75522
lclavicle -5.34234e-16 -2.74323e-14 0
lhumerus -54.9051 -10.5989 96.5809
lradius 27.203 -0 0
lwrist 8.57964 0 0
lhand -8.24783 -20.9421 0.0127949
lfingers 7.12502 -0 0
lthumb 17.6681 8.24181 0.00451019
rclavicle -5.34234e-16 -2.74323e-14 0
rhumerus -29.888 15.3268 -86.0235
rradius 40.0275 -0 0
rwrist -18.3494 0 0
rhand -29.6839 -23.5453 -0.00259601
rfingers 7.12502 -0 0
rthumb -3.01215 -53.5028 -0.0025662
400
root 9.69905 16.8258 20.0689 7.46349 -0.465883 -7.62216
lfemur -44.2375 2.58154 -12.4372
ltibia 33.8275 -0 0
lfoot -9.24581 11.2275 0.00917959
ltoes -11.5101 0 0
rfemur 16.4445 6.1966 33.5764
rtibia 1.7965 -0 0
rfoot -8.24286 7.11611 0.116988
rtoes -15.7844 0 0
lowerback -8.33768 3.11065 3.53333
upperback -0.637033 3.66384 3.57959
thorax 3.98444 1.84837 2.19283
lowerneck -19.3795 -6.43873 -13.2158
upperneck 21.4173 -8.38737 13.2329
head 11.3208 -3.37273 5.76606
lclavicle -5.34234e-16 -2.74323e-14 0
lhumerus -55.0122 -10.4073 96.5367
lradius 27.1732 -0 0
lwrist 8.37718 0 0
lhand -8.01247 -20.9283 0.0109189
lfingers 7.12502 -0 0
lthumb 17.8948 8.23792 0.00339525
rclavicle -5.34234e-16 -2.74323e-14 0
rhumerus -29.8673 15.1727 -86.0952
rradius 39.81 -0 0
rwrist -18.1524 0 0
rhand -29.6318 -23.5527 -0.00287718
rfingers 7.12502 -0 0
rthumb -2.96184 -53.511 -0.00283296
